# xmcd CD database file
#
# Track frame offsets:
#	150
#	19905
#	42680
#	62825
#	82930
#	101180
#	120595
#	140112
#	156780
#	179705
#	197845
#	219752
#	233932
#
# Disc length: 3422 seconds
#
# Revision: 2
# Processed by: cddbd v1.5PL3 Copyright (c) Steve Scherf et al.
# Submitted via: CDex 1.50Beta7
#
DISCID=bf0d5c0d
DTITLE=SPARKS - BALLS
DYEAR=2000
DGENRE=Rock
TTITLE0=Balls
TTITLE1=More Than A Sex Machine
TTITLE2=Scheherazade
TTITLE3=Aeroflot
TTITLE4=The Calm Before The Storm
TTITLE5=How To Get Your Ass Kicked
TTITLE6=Bullet Train
TTITLE7=It's A Knockoff
TTITLE8=Irreplaceable
TTITLE9=It's Educational
TTITLE10=The Angels
TTITLE11=The Calm Before The Opera
TTITLE12=The Calm Before The Storm (full length inst.)
EXTD=YEAR: 2000
EXTT0=
EXTT1=
EXTT2=
EXTT3=
EXTT4=
EXTT5=
EXTT6=
EXTT7=
EXTT8=
EXTT9=
EXTT10=
EXTT11=
EXTT12=
PLAYORDER=
